<svg width="30" height="32" viewBox="0 0 30 32" fill="none" xmlns="http://www.w3.org/2000/svg">
<path d="M15.025 3.87988C10.8875 3.87988 7.52499 7.46655 7.52499 11.8799V15.7332C7.52499 16.5466 7.19999 17.7865 6.81249 18.4799L5.37499 21.0266C4.48749 22.5999 5.09999 24.3466 6.72499 24.9332C12.1125 26.8532 17.925 26.8532 23.3125 24.9332C24.825 24.3999 25.4875 22.4932 24.6625 21.0266L23.225 18.4799C22.85 17.7865 22.525 16.5466 22.525 15.7332V11.8799C22.525 7.47988 19.15 3.87988 15.025 3.87988Z" stroke="#292D32" stroke-miterlimit="10" stroke-linecap="round"/>
<path d="M17.3375 4.26691C16.95 4.14691 16.55 4.05358 16.1375 4.00025C14.9375 3.84025 13.7875 3.93358 12.7125 4.26691C13.075 3.28025 13.975 2.58691 15.025 2.58691C16.075 2.58691 16.975 3.28025 17.3375 4.26691Z" stroke="#292D32" stroke-miterlimit="10" stroke-linecap="round" stroke-linejoin="round"/>
<path d="M19 26C19 27.65 17.2 29 15 29C13.9067 29 12.8933 28.66 12.1733 28.12C11.4533 27.58 11 26.82 11 26" stroke="#292D32" stroke-miterlimit="10"/>
</svg>
