<svg width="30" height="32" viewBox="0 0 30 32" fill="none" xmlns="http://www.w3.org/2000/svg">
<path d="M27.5 7.99935V11.226C27.5 13.3327 26.25 14.666 24.275 14.666H20V5.34602C20 3.86602 21.1375 2.66602 22.525 2.66602C23.8875 2.67935 25.1375 3.26602 26.0375 4.22602C26.9375 5.19935 27.5 6.53268 27.5 7.99935Z" stroke="#292D32" stroke-width="1.5" stroke-miterlimit="10" stroke-linecap="round" stroke-linejoin="round"/>
<path d="M2.5 9.33268V27.9993C2.5 29.106 3.67497 29.7327 4.49997 29.066L6.6375 27.3594C7.1375 26.9594 7.83751 27.0127 8.28751 27.4927L10.3625 29.7194C10.85 30.2394 11.65 30.2394 12.1375 29.7194L14.2375 27.4794C14.675 27.0127 15.375 26.9594 15.8625 27.3594L18 29.066C18.825 29.7193 20 29.0927 20 27.9993V5.33268C20 3.86602 21.125 2.66602 22.5 2.66602H8.75H7.5C3.75 2.66602 2.5 5.05268 2.5 7.99935V9.33268Z" stroke="#292D32" stroke-width="1.5" stroke-miterlimit="10" stroke-linecap="round" stroke-linejoin="round"/>
<path d="M7.5 12H15" stroke="#292D32" stroke-width="1.5" stroke-linecap="round" stroke-linejoin="round"/>
<path d="M8.4375 17.334H14.0625" stroke="#292D32" stroke-width="1.5" stroke-linecap="round" stroke-linejoin="round"/>
</svg>
