<svg width="23" height="23" viewBox="0 0 23 23" fill="none" xmlns="http://www.w3.org/2000/svg">
<path d="M16.3266 0H6.68483C2.49674 0 0 2.4955 0 6.6815V16.307C0 20.5045 2.49674 23 6.68483 23H16.3151C20.5032 23 23 20.5045 23 16.3185V6.6815C23.0115 2.4955 20.5147 0 16.3266 0ZM14.7158 12.1095L10.6543 16.169C10.4817 16.3415 10.2631 16.422 10.0445 16.422C9.8259 16.422 9.60729 16.3415 9.4347 16.169C9.10104 15.8355 9.10104 15.2835 9.4347 14.95L12.8864 11.5L9.4347 8.05C9.10104 7.7165 9.10104 7.1645 9.4347 6.831C9.76837 6.4975 10.3206 6.4975 10.6543 6.831L14.7158 10.8905C15.061 11.224 15.061 11.776 14.7158 12.1095Z" fill="#557F79"/>
</svg>
